<?xml version="1.0" standalone="no"?><!DOCTYPE svg PUBLIC "-//W3C//DTD SVG 1.1//EN" "http://www.w3.org/Graphics/SVG/1.1/DTD/svg11.dtd"><svg class="icon" width="32px" height="32.00px" viewBox="0 0 1024 1024" version="1.1" xmlns="http://www.w3.org/2000/svg"><path fill="#3296FA" d="M509.618255 415.794891c-42.695405 0-77.253478 38.371936-77.253478 85.73771 0 47.352471 34.558074 86.22071 77.253478 86.22071 42.666752 0 76.716242-38.867216 76.716242-86.22071C586.333474 454.181153 552.285007 415.794891 509.618255 415.794891zM511.518534 237.895155c-211.54809 0-383.266034 159.858848-383.266034 274.586822 0 114.726951 171.717943 273.623891 383.266034 273.623891 212.484416 0 384.227941-162.52149 384.227941-273.623891C895.746476 401.393903 724.00295 237.895155 511.518534 237.895155zM510.071579 689.900759c-89.698928 0-162.133657-81.708953-162.133657-181.90291 0-101.156888 72.434729-182.397167 162.133657-182.397167 90.182952 0 163.099658 81.241302 163.099658 182.397167C673.171238 608.204086 600.254531 689.900759 510.071579 689.900759z" /></svg>