<?xml version="1.0" encoding="UTF-8"?>
<svg width="18px" height="18px" viewBox="0 0 18 18" version="1.1" xmlns="http://www.w3.org/2000/svg" xmlns:xlink="http://www.w3.org/1999/xlink">
    <!-- Generator: Sketch 58 (84663) - https://sketch.com -->
    <title>编组</title>
    <desc>Created with Sketch.</desc>
    <g id="综合搜索" stroke="none" stroke-width="1" fill="none" fill-rule="evenodd">
        <g id="4.1-搜索建议" transform="translate(-334.000000, -77.000000)">
            <g id="body">
                <g id="分组-3">
                    <g id="head">
                        <g id="nav-导航-" transform="translate(0.000000, 64.000000)">
                            <g id="编组" transform="translate(334.000000, 13.000000)">
                                <circle id="椭圆形" fill="#C2C8CE" cx="9" cy="9" r="9"></circle>
                                <path d="M9.73925781,8.99902344 L12.9091797,5.82617187 C13.1132812,5.62109375 13.1132812,5.29101562 12.9091797,5.0859375 C12.7050781,4.88085937 12.3740234,4.88085937 12.1699219,5.0859375 L9,8.25878906 L5.83105469,5.0859375 C5.62695312,4.88085937 5.29589844,4.88085937 5.09179688,5.0859375 C4.88769531,5.29101562 4.88769531,5.62109375 5.09179688,5.82617187 L8.26074219,8.99804688 L5.09179688,12.1708984 C4.88769531,12.3759766 4.88769531,12.7060547 5.09179688,12.9111328 C5.19335938,13.0136719 5.32714844,13.0644531 5.46191406,13.0644531 C5.59570312,13.0644531 5.72949219,13.0136719 5.83203125,12.9111328 L9,9.73925781 L12.1689453,12.9111328 C12.2705078,13.0136719 12.4052734,13.0644531 12.5390625,13.0644531 C12.6728516,13.0644531 12.8066406,13.0136719 12.9082031,12.9111328 C13.1123047,12.7060547 13.1123047,12.3759766 12.9082031,12.1708984 L9.73925781,8.99902344 Z" id="路径" fill="#FFFFFF" fill-rule="nonzero"></path>
                            </g>
                        </g>
                    </g>
                </g>
            </g>
        </g>
    </g>
</svg>